HIERARCHY
ROOT Hips
{
	OFFSET	0.00	0.00	0.00
	CHANNELS 6 Xposition Yposition Zposition Zrotation Xrotation Yrotation
	JOINT LeftUpLeg
	{
		OFFSET	 0.126116	-0.014019	-0.065224
		CHANNELS 3 Zrotation Xrotation Yrotation
		JOINT LeftLeg
		{
			OFFSET	 0.000000	 0.000000	 0.569914
			CHANNELS 3 Zrotation Xrotation Yrotation
			JOINT LeftFoot
			{
				OFFSET	 0.000000	 0.000000	 0.544423
				CHANNELS 3 Zrotation Xrotation Yrotation
				JOINT LeftToeBase
				{
					OFFSET	 0.000000	 0.000000	 0.207117
					CHANNELS 3 Zrotation Xrotation Yrotation
					End Site
					{
						OFFSET	 0.000000	 0.000000	 0.207117
					}
				}
			}
		}
	}
	JOINT RightUpLeg
	{
		OFFSET	-0.124023	-0.008373	-0.065224
		CHANNELS 3 Zrotation Xrotation Yrotation
		JOINT RightLeg
		{
			OFFSET	 0.000000	 0.000000	 0.570047
			CHANNELS 3 Zrotation Xrotation Yrotation
			JOINT RightFoot
			{
				OFFSET	 0.000000	 0.000000	 0.544354
				CHANNELS 3 Zrotation Xrotation Yrotation
				JOINT RightToeBase
				{
					OFFSET	 0.000000	 0.000000	 0.207540
					CHANNELS 3 Zrotation Xrotation Yrotation
					End Site
					{
						OFFSET	 0.000000	 0.000000	 0.207540
					}
				}
			}
		}
	}
	JOINT Spine
	{
		OFFSET	 0.000184	-0.007763	 0.117403
		CHANNELS 3 Zrotation Xrotation Yrotation
		JOINT Spine1
		{
			OFFSET	 0.000000	 0.000000	 0.137269
			CHANNELS 3 Zrotation Xrotation Yrotation
			JOINT Spine2
			{
				OFFSET	 0.000000	 0.000000	 0.156879
				CHANNELS 3 Zrotation Xrotation Yrotation
				JOINT LeftShoulder
				{
					OFFSET	 0.080501	-0.002496	 0.160144
					CHANNELS 3 Zrotation Xrotation Yrotation
					JOINT LeftArm
					{
						OFFSET	 0.000000	 0.000000	 0.164363
						CHANNELS 3 Zrotation Xrotation Yrotation
						JOINT LeftForeArm
						{
							OFFSET	 0.000000	 0.000000	 0.364576
							CHANNELS 3 Zrotation Xrotation Yrotation
							JOINT LeftHand
							{
								OFFSET	 0.000000	 0.000000	 0.360812
								CHANNELS 3 Zrotation Xrotation Yrotation
								JOINT LeftHandIndex1
								{
									OFFSET	 0.000000	 0.000000	 0.086006
									CHANNELS 3 Zrotation Xrotation Yrotation
									JOINT LeftHandIndex2
									{
										OFFSET	 0.000000	 0.000000	 0.047236
										CHANNELS 3 Zrotation Xrotation Yrotation
										JOINT LeftHandIndex3
										{
											OFFSET	-0.004284	-0.000551	 0.038166
											CHANNELS 3 Zrotation Xrotation Yrotation
											End Site
											{
												OFFSET	-0.004284	-0.000551	 0.038166
											}
										}
									}
								}
							}
						}
					}
				}
				JOINT Neck
				{
					OFFSET	 0.000000	 0.000000	 0.176489
					CHANNELS 3 Zrotation Xrotation Yrotation
					JOINT Head
					{
						OFFSET	 0.000000	-0.001747	 0.077940
						CHANNELS 3 Zrotation Xrotation Yrotation
						End Site
						{
							OFFSET	 0.000000	-0.001747	 0.077940
						}
					}
				}
				JOINT RightShoulder
				{
					OFFSET	-0.080363	 0.000306	 0.159706
					CHANNELS 3 Zrotation Xrotation Yrotation
					JOINT RightArm
					{
						OFFSET	 0.000000	 0.000000	 0.164196
						CHANNELS 3 Zrotation Xrotation Yrotation
						JOINT RightForeArm
						{
							OFFSET	 0.000000	 0.000000	 0.365611
							CHANNELS 3 Zrotation Xrotation Yrotation
							JOINT RightHand
							{
								OFFSET	 0.000000	 0.000000	 0.360648
								CHANNELS 3 Zrotation Xrotation Yrotation
								JOINT RightHandIndex1
								{
									OFFSET	 0.000000	 0.000000	 0.069977
									CHANNELS 3 Zrotation Xrotation Yrotation
									JOINT RightHandIndex2
									{
										OFFSET	 0.000000	 0.000000	 0.052305
										CHANNELS 3 Zrotation Xrotation Yrotation
										JOINT RightHandIndex3
										{
											OFFSET	 0.009002	-0.000782	 0.042196
											CHANNELS 3 Zrotation Xrotation Yrotation
											End Site
											{
												OFFSET	 0.009002	-0.000782	 0.042196
											}
										}
									}
								}
							}
						}
					}
				}
			}
		}
	}
}
MOTION
Frames:    7
Frame Time: 0.03333334
-0.000643	 0.020596	 1.258240	 0.003033	-0.002028	-0.182468	 17.134570	-6.940870	 175.745200	 1.340974	-19.720890	-1.181624	-13.587100	 73.457440	 8.071111	-2.385833	 28.452760	 0.000004	-17.176610	-7.645453	-175.497600	-1.312991	-20.494730	 1.209469	 13.403720	 73.793570	-7.988805	 2.384658	 28.388730	 0.000004	-3.757714	 2.890877	-0.126893	 2.158301	 3.166226	 0.879631	-6.502790	-3.841380	-1.370945	-91.776170	 78.527430	 180.000000	 48.346790	 34.330640	-60.073130	-11.876830	 0.330557	-2.310655	-29.998800	-0.435771	-4.354620	-2.635965	 4.993658	 6.788941	-5.165319	 0.784187	 3.516649	-5.225038	 0.466231	 0.424329	-0.000002	-3.783157	-0.089647	-6.350223	 4.929203	 0.273590	 89.782120	 78.203870	 180.000000	-60.761790	 40.560840	 57.446970	 11.574330	 0.355912	 2.328798	 29.356280	-1.343903	 8.856155	 6.112037	 4.509576	-0.364401	 4.968462	 1.518543	-9.347576	 5.168945	 0.703820	 2.021906
-0.000639	 0.020965	 1.252738	 0.003190	-0.002344	-0.178420	 18.450260	-8.578314	 175.765300	 1.266559	-22.815180	-1.386727	-15.168170	 74.864140	 9.718822	-2.385833	 28.452760	 0.000004	-18.491600	-9.234017	-175.526300	-1.239514	-23.480080	 1.405655	 14.922690	 75.156150	-9.568239	 2.384658	 28.388730	 0.000004	-7.048787	 2.944083	-0.133464	 2.137621	 2.980251	 0.882298	-6.442560	-3.606866	-1.341778	-91.776210	 78.527450	-180.000000	 48.078540	 34.135520	-59.743720	-13.407250	 0.462287	-3.072937	-30.242080	-0.394687	-4.356091	-2.635965	 4.993658	 6.788941	-5.165319	 0.784187	 3.516649	-5.225038	 0.466231	 0.424329	-0.000002	-3.783157	-0.089647	-6.301848	 5.047971	 0.278052	 89.782090	 78.203900	-180.000000	-60.102950	 40.232800	 57.837850	 12.910150	 0.488173	 3.094205	 29.555310	-1.392514	 8.795899	 6.112037	 4.509576	-0.364401	 4.968462	 1.518543	-9.347576	 5.168945	 0.703820	 2.021906
-0.000637	 0.021892	 1.239031	 0.004101	-0.001218	-0.164107	 21.775500	-12.004600	 175.762900	 1.068318	-29.147910	-1.838531	-19.402980	 77.650670	 14.085820	-2.385833	 28.452760	 0.000004	-21.818470	-12.588570	-175.560300	-1.043828	-29.655890	 1.842535	 19.029450	 77.892000	-13.793810	 2.384658	 28.388730	 0.000004	-14.864510	 3.072381	-0.147545	 2.057934	 2.523742	 0.876861	-6.207024	-3.036937	-1.254591	-91.776160	 78.527430	 180.000000	 47.396800	 33.638960	-58.878070	-17.129690	 0.959302	-4.911923	-30.842780	-0.293526	-4.358612	-2.635965	 4.993658	 6.788941	-5.165319	 0.784187	 3.516649	-5.225038	 0.466231	 0.424329	-0.000002	-3.783157	-0.089647	-6.095298	 5.349391	 0.285002	 89.782120	 78.203900	 180.000000	-58.237430	 39.086240	 59.440140	 15.921550	 0.980267	 4.933780	 30.300450	-1.772758	 8.519463	 6.112037	 4.509576	-0.364401	 4.968462	 1.518543	-9.347576	 5.168945	 0.703820	 2.021906
-0.000633	 0.022809	 1.225626	 0.005020	 0.000358	-0.147544	 25.040590	-14.837330	 175.728500	 0.854924	-34.243660	-2.244291	-24.319230	 79.781060	 19.085640	-2.385833	 28.452760	 0.000004	-25.121910	-15.378680	-175.569300	-0.833270	-34.661330	 2.237736	 23.766920	 80.011210	-18.633010	 2.384658	 28.388730	 0.000004	-21.765200	 3.192345	-0.154355	 1.942048	 2.094263	 0.852179	-5.860497	-2.507908	-1.151159	-91.776230	 78.527450	-180.000000	 46.716750	 33.149280	-57.982180	-20.616850	 1.649581	-6.595778	-31.423970	-0.196077	-4.359474	-2.635965	 4.993658	 6.788941	-5.165319	 0.784187	 3.516649	-5.225038	 0.466231	 0.424329	-0.000002	-3.783157	-0.089647	-5.775496	 5.646366	 0.285037	 89.782090	 78.203870	 180.000000	-55.836160	 37.783970	 61.704200	 18.521690	 1.667633	 6.624341	 31.052620	-2.213587	 8.228230	 6.112037	 4.509576	-0.364401	 4.968462	 1.518543	-9.347576	 5.168945	 0.703820	 2.021906
-0.000605	 0.023444	 1.224531	 0.005870	 0.001970	-0.129363	 25.453520	-15.117010	 175.709400	 0.833181	-34.697060	-2.282701	-24.784070	 79.955470	 19.556700	-2.385833	 28.452760	 0.000004	-25.547610	-15.651070	-175.593900	-0.812805	-35.087860	 2.273543	 24.106530	 80.161310	-18.974470	 2.384658	 28.388730	 0.000004	-27.714930	 3.305556	-0.152685	 1.788958	 1.688098	 0.806947	-5.400368	-2.013873	-1.032168	-91.776140	 78.527450	 180.000000	 46.329630	 32.975280	-57.653560	-23.933760	 2.511354	-8.149784	-32.001710	-0.099794	-4.358863	-2.635965	 4.993658	 6.788941	-5.165319	 0.784187	 3.516649	-5.225038	 0.466231	 0.424329	-0.000002	-3.783157	-0.089647	-5.339406	 5.939350	 0.277178	 89.782140	 78.203900	 180.000000	-52.332780	 36.049760	 60.825490	 20.147920	 7.182042	 14.589930	 31.594190	-2.745633	 7.816904	 6.112037	 4.509576	-0.364401	 4.968462	 1.518543	-9.347576	 5.168945	 0.703820	 2.021906
-0.000568	 0.024017	 1.225072	 0.006495	 0.003374	-0.110718	 25.455300	-15.061100	 175.693400	 0.840246	-34.550990	-2.270278	-24.547940	 79.886050	 19.315570	-2.385833	 28.452760	 0.000004	-25.562050	-15.590770	-175.621400	-0.820941	-34.919400	 2.259356	 23.745900	 80.063920	-18.605490	 2.384658	 28.388730	 0.000004	-32.366110	 3.406642	-0.142119	 1.606406	 1.325242	 0.742490	-4.850286	-1.577571	-0.904411	-91.776130	 78.527470	 180.000000	 45.981640	 32.847750	-57.366760	-26.955190	 3.468549	-9.507600	-32.557720	-0.007890	-4.356894	-2.635965	 4.993658	 6.788941	-5.165319	 0.784187	 3.516649	-5.225038	 0.466231	 0.424329	-0.000002	-3.783157	-0.089647	-4.809343	 6.211471	 0.261086	 89.782140	 78.203890	 180.000000	-49.096570	 34.488480	 62.126860	 21.001380	 11.013690	 19.496260	 31.808460	-3.377382	 7.221338	 6.112037	 4.509576	-0.364401	 4.968462	 1.518543	-9.347576	 5.168945	 0.703820	 2.021906
-0.000528	 0.024540	 1.225457	 0.006776	 0.004379	-0.093225	 25.457120	-15.010220	 175.678500	 0.846602	-34.418490	-2.259049	-24.335880	 79.823170	 19.098870	-2.385833	 28.452760	 0.000004	-25.575030	-15.534510	-175.646700	-0.828385	-34.764060	 2.246327	 23.420660	 79.973930	-18.272590	 2.384658	 28.388730	 0.000004	-35.524650	 3.489816	-0.124342	 1.411725	 1.026908	 0.665826	-4.263017	-1.222373	-0.778871	-91.776150	 78.527420	 180.000000	 45.661020	 32.740120	-57.073530	-29.629080	 4.416076	-10.614680	-32.963690	 0.086466	-4.337216	-2.635965	 4.993658	 6.788941	-5.165319	 0.784187	 3.516649	-5.225038	 0.466231	 0.424329	-0.000002	-3.783157	-0.089647	-4.237137	 6.442755	 0.238572	 89.782080	 78.203870	-180.000000	-46.157160	 33.079640	 64.236190	 21.237120	 13.572320	 22.552430	 31.646580	-4.092969	 6.414318	 6.112037	 4.509576	-0.364401	 4.968462	 1.518543	-9.347576	 5.168945	 0.703820	 2.021906
